<?xml version="1.0" encoding="UTF-8"?>
<svg id="Layer_1" data-name="Layer 1" xmlns="http://www.w3.org/2000/svg" viewBox="0 0 1345 337">
  <defs>
    <style>
      .cls-1 {
        fill: #00a851;
        stroke: #00a851;
      }

      .cls-1, .cls-2 {
        fill-rule: evenodd;
        stroke-miterlimit: 2.61;
        stroke-width: .94px;
      }

      .cls-3, .cls-2 {
        fill: #00649d;
      }

      .cls-2 {
        stroke: #00649d;
      }

      .cls-4 {
        fill: #231f20;
      }
    </style>
  </defs>
  <path class="cls-1" d="M160.78,215.75c30.85-73.7,64.24-104.37,111.88-55.13,20.76,23.66,39.41,49.41,57.76,75.48,64.33,90.74,112.7,80.9,154.55-82.61-33.04,89.22-73.87,96.89-126.1,23.01l-51.27-67.46c-61.68-82.94-109.13-33.43-146.83,106.7h0Z"/>
  <path class="cls-2" d="M17.77,232.84c30.85-73.7,64.24-104.37,111.88-55.13,20.76,23.66,39.41,49.42,57.76,75.48,64.33,90.75,112.7,80.9,154.55-82.61-33.04,89.22-73.87,96.89-126.1,23.01l-51.27-67.46C102.91,43.2,55.47,92.71,17.77,232.84h0Z"/>
  <path class="cls-1" d="M307.61,109.05c-61.68-82.94-108.91-34.08-146.61,106.05,30.85-73.7,64.03-103.73,111.67-54.48l34.94-51.57h0Z"/>
  <path class="cls-3" d="M646.38,116.11c-4.91,9.72-10.21,15.11-20.22,15.11-14.92,0-25.71-12.56-25.71-30.92,0-14.92,8.73-28.76,25.12-28.76,10.6,0,16.49,4.22,19.14,14.62l2.85-.78c-.59-5.2-1.18-9.23-1.96-14.72-2.75-.49-9.42-2.65-17.37-2.65-21.89,0-37.78,13.54-37.78,34.25,0,15.6,10.7,32.48,35.13,32.48,7.07,0,15.31-1.96,18.06-2.55,1.77-3.34,4.22-10.6,5.59-15.11l-2.85-.98h0Z"/>
  <path class="cls-3" d="M669.15,99.72v-10.7c-4.71,1.96-9.03,3.14-13.84,3.93v2.26c5.69,.69,6.08,1.08,6.08,7.56v20.32c0,6.48-.69,7.07-6.77,7.66v2.55h22.57v-2.55c-7.56-.59-8.05-1.18-8.05-7.66v-17.96c2.16-5.5,5.3-8.34,7.85-8.34,1.57,0,2.75,.59,4.22,1.96,.59,.59,1.37,.69,2.55,.2,1.86-.88,3.14-2.85,3.14-4.81,0-2.26-2.36-4.91-5.69-4.91-4.71,0-8.93,5.5-11.88,10.5h-.2Z"/>
  <path class="cls-3" d="M723.81,122.88c-3.63,3.34-7.26,4.91-11.29,4.91-6.87,0-14.62-5.5-14.72-18.84,11.78-.39,24.14-1.37,25.71-1.67,1.86-.39,2.26-1.18,2.26-3.14,0-7.56-6.58-14.92-14.72-14.92h-.1c-5.01,0-10.31,2.75-14.33,7.16-4.02,4.42-6.48,10.5-6.48,17.17,0,11.09,7.07,20.9,19.14,20.9,3.04,0,9.81-1.77,16-9.42l-1.47-2.16h0Zm-15.21-30.03c5.5,0,8.83,4.71,8.73,9.81,0,1.47-.59,1.96-2.36,1.96-5.69,.2-11.19,.29-16.68,.29,1.47-7.95,5.89-12.07,10.3-12.07h0Z"/>
  <path class="cls-3" d="M779.46,128.28l-3.14-.29c-3.63-.39-4.32-.88-4.32-5.99V63.41c-3.63,1.18-10.21,2.75-15.31,3.34v2.45c7.07,.49,7.56,.78,7.56,7.16v14.03c-2.26-.88-5.2-1.18-6.58-1.18-13.35,0-25.22,10.7-25.22,24.34s10.3,20.9,18.16,20.9c1.08,0,3.73-.59,7.66-2.85l5.99-3.53v6.38c5.69-2.08,13.05-3.35,15.21-3.75v-2.44h0Zm-15.21-3.34c-2.36,1.77-5.99,3.34-9.42,3.34-6.38,0-13.54-5.69-13.54-17.37,0-14.23,8.24-17.96,12.86-17.96,3.63,0,7.75,1.57,10.11,5.01v26.99h0Z"/>
  <path class="cls-3" d="M793.79,80.68c2.85,0,5.01-2.36,5.01-5.01,0-2.95-2.16-5.1-4.91-5.1s-5.01,2.16-5.01,5.1c0,2.65,2.35,5.01,4.91,5.01h0Zm11.48,52.6v-2.55c-6.28-.59-6.97-1.18-6.97-7.85v-33.86c-4.22,1.77-8.93,3.04-13.94,3.83v2.35c5.89,.88,6.18,1.37,6.18,7.46v20.22c0,6.67-.69,7.26-6.87,7.85v2.55h21.59Z"/>
  <path class="cls-3" d="M834.91,129.75l-.88-2.55c-1.28,.69-3.53,1.67-5.99,1.67s-5.79-1.47-5.79-9.42v-25.13h10.5c1.28-.78,1.57-2.85,.59-3.93h-11.09v-13.45l-1.37-.2-6.38,6.58v7.07h-4.42l-2.75,2.85,.39,1.08h6.77v28.46c0,7.75,3.43,11.68,9.62,11.68,.98,0,2.45-.39,4.12-1.28l6.67-3.43h0Z"/>
  <path class="cls-3" d="M928.14,69.49h-23.36v2.75c6.97,.49,9.03,1.67,9.52,5.5,.39,3.04,.69,7.16,.69,16.19v7.36c0,16.19-4.42,28.07-18.55,28.07-12.17,0-18.45-9.13-18.45-24.93v-22.28c0-8.83,.79-9.42,8.44-9.91v-2.75h-25.32v2.75c7.66,.69,8.54,1.08,8.54,9.91v24.44c0,11.58,2.75,18.84,8.64,23.36,4.32,3.34,9.91,4.71,15.7,4.71,6.48,0,13.05-2.06,17.66-6.77,5.59-5.99,7.36-14.33,7.36-25.91v-8.05c0-9.03,.29-13.25,.59-15.9,.39-4.12,2.65-5.4,8.54-5.79v-2.75h0Z"/>
  <path class="cls-3" d="M977.31,133.29v-2.55c-5.69-.59-6.28-.98-6.28-7.66v-18.94c0-9.42-4.81-14.92-12.66-14.92-2.85,0-5.4,1.18-8.15,2.94-2.45,1.67-4.61,3.14-6.58,4.61v-7.75c-4.32,1.87-8.93,3.04-13.64,3.93v2.26c5.3,.98,5.89,1.37,5.89,7.66v20.22c0,6.48-.49,6.97-7.16,7.66v2.55h21.3v-2.55c-5.79-.59-6.38-.98-6.38-7.66v-23.06c2.94-2.55,6.77-5.01,10.7-5.01,6.58,0,8.93,4.42,8.93,11.19v16.39c0,6.77-.69,7.56-6.48,8.15v2.55h20.51Z"/>
  <path class="cls-3" d="M992.82,80.68c2.85,0,5.01-2.36,5.01-5.01,0-2.95-2.16-5.1-4.91-5.1s-5.01,2.16-5.01,5.1c0,2.65,2.35,5.01,4.91,5.01h0Zm11.48,52.6v-2.55c-6.28-.59-6.97-1.18-6.97-7.85v-33.86c-4.22,1.77-8.93,3.04-13.94,3.83v2.35c5.89,.88,6.18,1.37,6.18,7.46v20.22c0,6.67-.69,7.26-6.87,7.85v2.55h21.59Z"/>
  <path class="cls-3" d="M1031.1,89.22c-9.03,0-21.59,7.36-21.59,23.55,0,10.89,8.05,21.69,21.49,21.69,9.72,0,21.3-7.56,21.3-23.36,0-12.07-9.03-21.89-21.2-21.89h0Zm-1.28,3.24c8.73,0,13.35,9.42,13.35,20.81,0,13.45-5.01,17.96-11.09,17.96-8.15,0-13.45-9.22-13.45-21.59,0-11.09,5.3-17.18,11.19-17.18h0Z"/>
  <path class="cls-3" d="M1106.17,133.29v-2.55c-5.69-.59-6.28-.98-6.28-7.66v-18.94c0-9.42-4.81-14.92-12.66-14.92-2.85,0-5.4,1.18-8.15,2.94-2.45,1.67-4.61,3.14-6.58,4.61v-7.75c-4.32,1.87-8.93,3.04-13.64,3.93v2.26c5.3,.98,5.89,1.37,5.89,7.66v20.22c0,6.48-.49,6.97-7.16,7.66v2.55h21.3v-2.55c-5.79-.59-6.38-.98-6.38-7.66v-23.06c2.94-2.55,6.77-5.01,10.7-5.01,6.58,0,8.93,4.42,8.93,11.19v16.39c0,6.77-.69,7.56-6.48,8.15v2.55h20.51Z"/>
  <path class="cls-3" d="M1166.89,87.94c-2.61,0-7.03,1.21-11.75,3.61-7.96,4.12-17.83,13.45-21.35,27.5-1.76,7.03-.41,14.86,8.93,14.86,4.42,0,11.47-2.91,16.64-6.73,8.13-6.02,14.64-16.36,16.88-25.3,2.09-8.33-.92-13.95-9.35-13.95h0Zm-24.36,28.71c3.72-14.86,13.26-22.89,16.7-24.19,1-.4,2.51-.8,3.51-.8,5.02,0,6.97,3.81,5.04,11.54-3.07,13.05-12.86,24.9-17.43,26.3-.88,.3-2.28,.7-3.29,.7-5.62,0-6.42-6.02-4.53-13.55h0Z"/>
  <path class="cls-3" d="M1188.37,90.35l-3.36,2.61,.05,1h8.33c-3.57,9.03-6.74,16.86-11.81,29.51-7.41,18.77-11.38,25.4-13.69,27-.75,.6-1.83,.9-2.74,.9-1.2,0-2.89-.9-4.04-1.51-1.05-.6-2.23,.1-2.99,.7-1.03,.9-2.29,2.31-2.56,3.41-.5,2.01,1.85,3.01,3.56,3.01,1.91,0,7.13-1.61,12.78-6.93,4.47-4.22,11.53-13.95,21.13-36.64,1.76-4.22,3.62-8.43,8.09-19.47l10.49-1,2.86-2.61h-11.84c7.66-18.57,11.58-24.19,15.9-24.19,3.01,0,5.22,1.2,6.9,3.31,.53,.7,1.63,.7,2.84-.1,.98-.7,2.58-2.31,2.94-3.71,.6-2.01-1.55-4.22-4.97-4.22-5.82,0-12.8,3.41-18.27,8.43-5.1,4.72-9.62,12.35-13.06,20.48h-6.52Z"/>
  <path class="cls-3" d="M558.12,175.3c-.78-6.18-1.28-10.11-1.67-13.54-3.73-1.18-7.85-2.26-12.37-2.26-12.66,0-20.22,8.05-20.22,17.47,0,11.09,9.91,15.9,16.19,19.33,7.36,3.93,12.76,7.36,12.76,14.62s-4.32,11.78-11.78,11.78c-10.21,0-14.62-9.91-16.1-15.9l-2.94,.69c.69,4.71,1.96,13.15,2.65,15.21,.98,.49,2.45,1.28,4.91,2.06,2.36,.69,5.59,1.47,9.62,1.47,13.05,0,21.79-8.24,21.79-18.55,0-11.09-9.23-15.6-16.98-19.63-7.75-3.93-12.46-7.36-12.46-14.53,0-5.3,3.34-10.7,10.89-10.7,8.54,0,11.19,6.77,12.86,12.95l2.85-.49h0Z"/>
  <path class="cls-3" d="M591.1,180.7c-9.03,0-21.59,7.36-21.59,23.55,0,10.89,8.05,21.69,21.49,21.69,9.72,0,21.3-7.56,21.3-23.36,0-12.07-9.03-21.89-21.2-21.89h0Zm-1.28,3.24c8.73,0,13.35,9.42,13.35,20.81,0,13.45-5.01,17.96-11.09,17.96-8.15,0-13.45-9.22-13.45-21.59,0-11.09,5.3-17.18,11.19-17.18h0Z"/>
  <path class="cls-3" d="M665.69,219.86l-2.65-.1c-3.83-.29-4.61-.88-4.61-5.79v-32.78c-1.47,.29-3.83,.69-6.58,.98-2.85,.39-6.18,.69-8.83,.78v2.26l3.53,.59c3.24,.49,4.12,1.08,4.12,6.28v22.97c-3.34,3.24-7.07,4.71-10.6,4.71-4.42,0-8.64-2.36-8.64-11.09v-13.25c0-6.58,0-11.19,.29-14.23-1.57,.29-4.32,.69-6.97,1.08-2.55,.29-5.01,.59-7.07,.69v2.26l2.75,.59c2.45,.59,3.24,1.08,3.24,6.28v19.24c0,10.6,5.59,14.62,12.17,14.62,2.65,0,4.71-.79,7.56-2.45,2.85-1.67,5.01-3.43,7.26-5.1v6.97l.59,.59c1.86-.49,4.32-1.28,6.87-1.96,2.65-.7,5.4-1.29,7.56-1.59v-2.54h0Z"/>
  <path class="cls-3" d="M695.03,221.23l-.88-2.55c-1.28,.69-3.53,1.67-5.99,1.67s-5.79-1.47-5.79-9.42v-25.13h10.5c1.28-.78,1.57-2.85,.59-3.92h-11.09v-13.45l-1.37-.2-6.38,6.58v7.07h-4.42l-2.75,2.85,.39,1.08h6.77v28.46c0,7.75,3.43,11.68,9.62,11.68,.98,0,2.45-.39,4.12-1.28l6.67-3.44h0Z"/>
  <path class="cls-3" d="M746.66,224.76v-2.55c-5.69-.49-6.48-1.08-6.48-7.56v-17.17c0-11.78-5.59-16.78-13.54-16.78-5.3,0-10.5,3.63-14.03,7.16v-32.98c-3.83,1.18-9.72,2.75-14.43,3.44v2.36c6.48,.59,6.67,.98,6.67,7.16v46.81c0,6.48-.78,7.07-6.67,7.56l-.1,2.55h20.9v-2.55c-5.89-.59-6.38-1.28-6.38-7.56v-23.36c2.75-3.14,6.48-5.01,10.21-5.01,6.58,0,9.62,4.02,9.62,12.07v16.29c0,6.38-.79,6.97-6.48,7.56v2.55h20.71Z"/>
  <path class="cls-3" d="M785.62,214.36c-3.63,3.34-7.26,4.91-11.29,4.91-6.87,0-14.62-5.49-14.72-18.84,11.78-.39,24.14-1.37,25.71-1.67,1.86-.39,2.26-1.18,2.26-3.14,0-7.56-6.58-14.92-14.72-14.92h-.1c-5.01,0-10.3,2.75-14.33,7.16-4.02,4.42-6.48,10.5-6.48,17.17,0,11.09,7.07,20.9,19.14,20.9,3.04,0,9.81-1.77,16-9.42l-1.47-2.16h0Zm-15.21-30.03c5.5,0,8.83,4.71,8.73,9.81,0,1.47-.59,1.96-2.36,1.96-5.69,.2-11.19,.29-16.68,.29,1.47-7.95,5.89-12.07,10.3-12.07h0Z"/>
  <path class="cls-3" d="M807.8,191.2v-10.7c-4.71,1.96-9.03,3.14-13.84,3.93v2.26c5.69,.69,6.08,1.08,6.08,7.56v20.32c0,6.48-.69,7.07-6.77,7.66v2.55h22.57v-2.55c-7.56-.59-8.05-1.18-8.05-7.66v-17.96c2.16-5.5,5.3-8.34,7.85-8.34,1.57,0,2.75,.59,4.22,1.96,.59,.59,1.37,.69,2.55,.2,1.86-.88,3.14-2.85,3.14-4.81,0-2.26-2.36-4.91-5.69-4.91-4.71,0-8.93,5.5-11.88,10.5h-.2Z"/>
  <path class="cls-3" d="M878.46,224.76v-2.55c-5.69-.59-6.28-.98-6.28-7.66v-18.94c0-9.42-4.81-14.92-12.66-14.92-2.85,0-5.4,1.18-8.15,2.94-2.45,1.67-4.61,3.14-6.58,4.61v-7.75c-4.32,1.86-8.93,3.04-13.64,3.93v2.26c5.3,.98,5.89,1.37,5.89,7.66v20.22c0,6.48-.49,6.97-7.16,7.66v2.55h21.3v-2.55c-5.79-.59-6.38-.98-6.38-7.66v-23.06c2.94-2.55,6.77-5.01,10.7-5.01,6.58,0,8.93,4.42,8.93,11.19v16.39c0,6.77-.69,7.56-6.48,8.15v2.55h20.51Z"/>
  <path class="cls-3" d="M963.26,207.59c-4.91,9.72-10.21,15.11-20.22,15.11-14.92,0-25.71-12.56-25.71-30.91,0-14.92,8.73-28.76,25.12-28.76,10.6,0,16.49,4.22,19.14,14.62l2.85-.78c-.59-5.2-1.18-9.23-1.96-14.72-2.75-.49-9.42-2.65-17.37-2.65-21.89,0-37.78,13.54-37.78,34.25,0,15.6,10.7,32.48,35.13,32.48,7.07,0,15.31-1.96,18.06-2.55,1.77-3.34,4.22-10.6,5.59-15.11l-2.85-.98h0Z"/>
  <path class="cls-3" d="M1011.64,220.94l-.98-2.55c-.98,.59-2.36,1.08-3.53,1.08-1.67,0-3.43-1.47-3.43-5.89v-18.16c0-5.2-.98-9.13-4.42-12.07-2.16-1.77-5.1-2.65-8.05-2.65-5.59,1.18-12.07,4.91-14.72,6.87-1.86,1.37-3.04,2.55-3.04,3.93,0,2.35,2.45,4.22,4.22,4.22,1.37,0,2.36-.69,2.85-2.26,.79-2.95,1.67-5.1,2.85-6.48,1.08-1.18,2.55-1.87,4.42-1.87,5.01,0,8.34,3.93,8.34,11.09v1.67c-2.16,1.77-9.32,4.42-15.21,6.38-5.4,1.87-7.95,4.91-7.95,9.72,0,6.18,4.81,11.97,11.78,11.97,2.94,0,7.65-3.63,11.58-6.28,.49,1.67,1.08,3.04,2.36,4.32,1.08,1.08,3.14,1.96,4.61,1.96l8.34-5.01h0Zm-15.51-4.42c-1.86,1.86-5.3,3.53-7.85,3.53-3.04,0-6.97-2.45-6.97-7.46,0-3.63,2.16-5.5,5.99-7.26,2.06-.98,6.77-3.04,8.83-4.12v15.31h0Z"/>
  <path class="cls-3" d="M1036.08,224.76v-2.55c-6.28-.59-7.07-1.18-7.07-7.66v-59.67c-3.34,1.18-9.42,2.85-14.52,3.44v2.36c6.18,.59,6.77,.78,6.77,7.46v46.42c0,6.48-.88,7.07-7.07,7.66v2.55h21.89Z"/>
  <path class="cls-3" d="M1050.8,172.16c2.85,0,5.01-2.36,5.01-5.01,0-2.94-2.16-5.1-4.91-5.1s-5.01,2.16-5.01,5.1c0,2.65,2.35,5.01,4.91,5.01h0Zm11.48,52.6v-2.55c-6.28-.59-6.97-1.18-6.97-7.85v-33.86c-4.22,1.77-8.93,3.04-13.94,3.83v2.35c5.89,.88,6.18,1.37,6.18,7.46v20.22c0,6.67-.69,7.26-6.87,7.85v2.55h21.59Z"/>
  <path class="cls-3" d="M1069.15,181.88l-2.65,2.85,.39,1.08h6.87v28.85c0,6.48-.69,6.97-6.97,7.56v2.55h23.16v-2.45c-7.75-.78-8.44-1.08-8.44-8.34v-28.17h10.6c1.08-.69,1.57-3.04,.98-3.92h-11.58v-3.93c-.1-8.34,.98-13.05,2.26-15.02,1.08-1.67,2.65-2.85,5.2-2.85,3.24,0,6.09,1.77,7.95,3.63,.88,.98,1.77,.98,2.65,.29,.98-.79,1.57-1.57,1.86-2.36,.49-1.18,.39-2.35-.49-3.44-1.57-1.86-4.42-3.14-7.75-3.34-3.83,.49-7.26,2.26-10.8,5.2-5.3,4.52-6.87,9.42-7.56,11.58-.69,2.16-1.08,5.01-1.08,8.15v2.06h-4.61Z"/>
  <path class="cls-3" d="M1117.24,180.7c-9.03,0-21.59,7.36-21.59,23.55,0,10.89,8.05,21.69,21.49,21.69,9.72,0,21.3-7.56,21.3-23.36,0-12.07-9.03-21.89-21.2-21.89h0Zm-1.28,3.24c8.73,0,13.35,9.42,13.35,20.81,0,13.45-5.01,17.96-11.09,17.96-8.15,0-13.45-9.22-13.45-21.59,0-11.09,5.3-17.18,11.19-17.18h0Z"/>
  <path class="cls-3" d="M1158.66,191.2v-10.7c-4.71,1.96-9.03,3.14-13.84,3.93v2.26c5.69,.69,6.08,1.08,6.08,7.56v20.32c0,6.48-.69,7.07-6.77,7.66v2.55h22.57v-2.55c-7.56-.59-8.05-1.18-8.05-7.66v-17.96c2.16-5.5,5.3-8.34,7.85-8.34,1.57,0,2.75,.59,4.22,1.96,.59,.59,1.37,.69,2.55,.2,1.86-.88,3.14-2.85,3.14-4.81,0-2.26-2.36-4.91-5.69-4.91-4.71,0-8.93,5.5-11.88,10.5h-.2Z"/>
  <path class="cls-3" d="M1229.32,224.76v-2.55c-5.69-.59-6.28-.98-6.28-7.66v-18.94c0-9.42-4.81-14.92-12.66-14.92-2.85,0-5.4,1.18-8.15,2.94-2.45,1.67-4.61,3.14-6.58,4.61v-7.75c-4.32,1.86-8.93,3.04-13.64,3.93v2.26c5.3,.98,5.89,1.37,5.89,7.66v20.22c0,6.48-.49,6.97-7.16,7.66v2.55h21.3v-2.55c-5.79-.59-6.38-.98-6.38-7.66v-23.06c2.94-2.55,6.77-5.01,10.7-5.01,6.58,0,8.93,4.42,8.93,11.19v16.39c0,6.77-.69,7.56-6.48,8.15v2.55h20.51Z"/>
  <path class="cls-3" d="M1244.82,172.16c2.85,0,5.01-2.36,5.01-5.01,0-2.94-2.16-5.1-4.91-5.1s-5.01,2.16-5.01,5.1c0,2.65,2.35,5.01,4.91,5.01h0Zm11.48,52.6v-2.55c-6.28-.59-6.97-1.18-6.97-7.85v-33.86c-4.22,1.77-8.93,3.04-13.94,3.83v2.35c5.89,.88,6.18,1.37,6.18,7.46v20.22c0,6.67-.69,7.26-6.87,7.85v2.55h21.59Z"/>
  <path class="cls-3" d="M1300.67,220.94l-.98-2.55c-.98,.59-2.36,1.08-3.53,1.08-1.67,0-3.43-1.47-3.43-5.89v-18.16c0-5.2-.98-9.13-4.42-12.07-2.16-1.77-5.1-2.65-8.05-2.65-5.59,1.18-12.07,4.91-14.72,6.87-1.86,1.37-3.04,2.55-3.04,3.93,0,2.35,2.45,4.22,4.22,4.22,1.37,0,2.36-.69,2.85-2.26,.79-2.95,1.67-5.1,2.85-6.48,1.08-1.18,2.55-1.87,4.42-1.87,5.01,0,8.34,3.93,8.34,11.09v1.67c-2.16,1.77-9.32,4.42-15.21,6.38-5.4,1.87-7.95,4.91-7.95,9.72,0,6.18,4.81,11.97,11.78,11.97,2.94,0,7.65-3.63,11.58-6.28,.49,1.67,1.08,3.04,2.36,4.32,1.08,1.08,3.14,1.96,4.61,1.96l8.34-5.01h0Zm-15.51-4.42c-1.86,1.86-5.3,3.53-7.85,3.53-3.04,0-6.97-2.45-6.97-7.46,0-3.63,2.16-5.5,5.99-7.26,2.06-.98,6.77-3.04,8.83-4.12v15.31h0Z"/>
  <path class="cls-4" d="M589.59,311.59c2,.39,5.22,.65,8.96,.65,5.87,0,10.64-.97,14.12-3.55,2.84-2.13,5.16-5.67,5.16-10.13,0-5.22-3.22-8.51-7.09-9.67v-.13c4.9-1.29,9.35-5.35,9.35-10.9,0-2.84-1.1-5.09-3.16-6.77-2.26-2.06-5.55-2.97-10-2.97-3.55,0-6.64,.39-9.35,.9l-8,42.56h0Zm12.64-38.82c.84-.26,2.45-.39,4.45-.39,4.71,0,7.87,1.81,7.87,6,0,5.29-4.77,8.51-11.03,8.51h-4l2.71-14.12h0Zm-3.55,18.19h4.39c4.84,0,9.16,2.26,9.16,7.35,0,6.97-5.93,9.61-12.25,9.61-1.48,0-3.03-.06-4.39-.26l3.1-16.7h0Z"/>
  <path class="cls-4" d="M632.37,268.45l-4.84,25.35c-.39,2-.58,4.13-.58,6,0,8.96,5.55,12.83,12.7,12.83,9.22,0,15.67-5.22,18.19-18.19l4.97-25.99h-5.35l-4.97,25.8c-1.87,9.8-6.19,13.8-12.12,13.8-4.84,0-8.06-2.84-8.06-8.38,0-1.81,.19-3.68,.52-5.48l4.9-25.73h-5.35Z"/>
  <polygon class="cls-4" points="674.18 268.45 665.92 311.92 671.27 311.92 679.53 268.45 674.18 268.45 674.18 268.45"/>
  <polygon class="cls-4" points="682.77 311.92 705.6 311.92 706.51 307.27 688.97 307.27 696.38 268.45 691.03 268.45 682.77 311.92 682.77 311.92"/>
  <path class="cls-4" d="M713.17,311.72c2.77,.32,6.71,.52,10.51,.52,8.38,0,14.7-1.81,19.74-6.06,5.55-4.77,8.71-12.58,8.71-20.44,0-5.48-1.74-9.42-4.06-11.8-3.22-3.74-8.77-5.8-15.99-5.8-3.8,0-7.48,.26-10.83,.84l-8.06,42.76h0Zm12.7-38.76c1.55-.32,4-.45,5.93-.45,10.83,0,14.58,5.74,14.58,13.48,0,6.13-2,12.06-5.93,16.06-3.61,3.74-8.64,5.74-15.54,5.74-1.61,0-3.68,0-5.61-.26l6.58-34.57h0Z"/>
  <polygon class="cls-4" points="764.72 268.45 756.46 311.92 761.82 311.92 770.07 268.45 764.72 268.45 764.72 268.45"/>
  <path class="cls-4" d="M778.35,311.92l4.32-22.7c1.1-5.93,1.81-10.25,2.26-14.32l.19-.06c.97,4.13,1.94,7.16,4,12.51l9.93,24.57h5.29l8.25-43.47h-5.03l-4.39,23.09c-1.16,6.06-1.61,9.67-1.87,13.61l-.13,.06c-.9-3.74-1.87-7.22-3.8-12.13l-9.93-24.64h-5.87l-8.25,43.47h5.03Z"/>
  <path class="cls-4" d="M851.76,289.21h-14.06l-.84,4.39h8.84l-2.52,12.96c-1.55,.71-4,1.23-6.58,1.23-9.67,0-13.87-5.55-13.87-13.93,0-5.87,2.45-12.13,6.51-15.93,3.61-3.42,8.32-5.29,13.48-5.29,3.93,0,6.9,.71,9.09,1.87l1.81-4.51c-1.35-.77-4.97-2-10.25-2-6.97,0-13.22,2.39-17.93,6.45-5.55,5.03-8.45,12.64-8.45,19.86,0,4.26,1.1,9.03,4.39,12.64,3.29,3.68,8.06,5.42,14.19,5.42,5.1,0,9.74-1.29,12.25-2.32l3.93-20.83h0Z"/>
  <path class="cls-4" d="M871.4,311.59c2,.39,5.22,.65,8.96,.65,5.87,0,10.64-.97,14.12-3.55,2.84-2.13,5.16-5.67,5.16-10.13,0-5.22-3.22-8.51-7.09-9.67v-.13c4.9-1.29,9.35-5.35,9.35-10.9,0-2.84-1.1-5.09-3.16-6.77-2.26-2.06-5.55-2.97-10-2.97-3.55,0-6.64,.39-9.35,.9l-8,42.56h0Zm12.64-38.82c.84-.26,2.45-.39,4.45-.39,4.71,0,7.87,1.81,7.87,6,0,5.29-4.77,8.51-11.03,8.51h-4l2.71-14.12h0Zm-3.55,18.19h4.39c4.84,0,9.16,2.26,9.16,7.35,0,6.97-5.93,9.61-12.25,9.61-1.48,0-3.03-.06-4.39-.26l3.1-16.7h0Z"/>
  <polygon class="cls-4" points="932.43 286.96 916.63 286.96 919.27 273.03 936.04 273.03 936.94 268.45 914.76 268.45 906.5 311.92 929.66 311.92 930.56 307.34 912.76 307.34 915.73 291.47 931.53 291.47 932.43 286.96 932.43 286.96"/>
  <polygon class="cls-4" points="946.12 311.92 951.47 311.92 958.83 273.09 971.6 273.09 972.5 268.45 941.67 268.45 940.77 273.09 953.47 273.09 946.12 311.92 946.12 311.92"/>
  <polygon class="cls-4" points="981.22 311.92 986.58 311.92 993.93 273.09 1006.7 273.09 1007.6 268.45 976.77 268.45 975.87 273.09 988.57 273.09 981.22 311.92 981.22 311.92"/>
  <polygon class="cls-4" points="1031.93 286.96 1016.13 286.96 1018.78 273.03 1035.54 273.03 1036.45 268.45 1014.26 268.45 1006.01 311.92 1029.16 311.92 1030.06 307.34 1012.26 307.34 1015.23 291.47 1031.03 291.47 1031.93 286.96 1031.93 286.96"/>
  <path class="cls-4" d="M1038.08,311.92h5.35l3.55-18.96h4.77c4.32,0,6.51,2.45,6.84,8.45,.32,5.03,.77,9.61,1.03,10.51h5.55c-.58-1.74-.9-5.93-1.36-12-.32-4.45-1.74-7.67-4.84-8.71l.06-.13c5.48-1.55,10.32-6.26,10.32-12.64,0-2.97-1.23-5.42-3.22-7.16-2.32-2.13-6.06-3.16-10.38-3.16-3.22,0-6.84,.32-9.48,.97l-8.19,42.82h0Zm12.77-39.08c1.03-.26,2.39-.45,4.52-.45,4.9,0,8.38,2.13,8.38,6.77,0,5.22-4.39,9.67-11.16,9.67h-4.77l3.03-15.99h0Z"/>
  <polygon class="cls-4" points="1087.07 311.92 1109.9 311.92 1110.8 307.27 1093.26 307.27 1100.67 268.45 1095.32 268.45 1087.07 311.92 1087.07 311.92"/>
  <polygon class="cls-4" points="1125.52 268.45 1117.27 311.92 1122.62 311.92 1130.88 268.45 1125.52 268.45 1125.52 268.45"/>
  <path class="cls-4" d="M1148.76,311.92l22.89-43.47h-5.93l-13.8,27.15c-2.39,4.58-3.68,7.8-4.77,10.51h-.19c-.06-2.84-.32-5.35-.84-9.8l-3.16-27.86h-5.42l5.35,43.47h5.87Z"/>
  <polygon class="cls-4" points="1196.57 286.96 1180.77 286.96 1183.41 273.03 1200.18 273.03 1201.08 268.45 1178.9 268.45 1170.64 311.92 1193.79 311.92 1194.7 307.34 1176.9 307.34 1179.86 291.47 1195.66 291.47 1196.57 286.96 1196.57 286.96"/>
  <path class="cls-4" d="M1201.49,309.59c1.81,1.61,6.13,2.97,10.45,3.03,9.8,0,15.67-5.93,15.67-13.41,0-5.35-2.9-8.77-8.26-11.67-4.58-2.52-6.77-4.51-6.77-8.06s3.22-7.09,8.58-7.09c3.48,0,6.19,1.23,7.55,2.06l1.93-4.45c-1.48-.97-4.64-2.19-8.9-2.19-8,0-14.7,4.97-14.7,12.77,0,4.64,3.09,8.13,8.64,11.16,4.58,2.45,6.38,4.9,6.38,8.13,0,5.22-4.51,8.13-9.42,8.13-3.61,0-6.84-1.16-9.22-2.77l-1.94,4.39h0Z"/>
  <path class="cls-4" d="M1264.54,258.64c2.43,0,4.8,.62,7.12,1.87,2.31,1.25,4.12,3.03,5.41,5.35,1.29,2.32,1.94,4.75,1.94,7.26s-.64,4.9-1.91,7.2c-1.27,2.3-3.05,4.09-5.35,5.36-2.3,1.28-4.7,1.91-7.2,1.91s-4.91-.64-7.21-1.91c-2.3-1.27-4.09-3.06-5.36-5.36-1.28-2.3-1.92-4.7-1.92-7.2s.65-4.94,1.94-7.26c1.3-2.32,3.11-4.11,5.42-5.35,2.32-1.25,4.69-1.87,7.12-1.87h0Zm0,2.4c-2.04,0-4.02,.52-5.95,1.56-1.92,1.04-3.43,2.53-4.52,4.47-1.09,1.94-1.63,3.95-1.63,6.05s.54,4.09,1.6,6c1.07,1.91,2.56,3.41,4.48,4.47,1.92,1.07,3.92,1.6,6.01,1.6s4.09-.54,6.01-1.6c1.92-1.07,3.41-2.56,4.47-4.47,1.06-1.91,1.59-3.91,1.59-6s-.54-4.11-1.62-6.05c-1.08-1.94-2.59-3.43-4.52-4.47-1.93-1.04-3.91-1.56-5.93-1.56h0Zm-6.36,20.08v-15.56h5.36c1.83,0,3.16,.14,3.97,.43,.82,.29,1.47,.79,1.96,1.51,.49,.71,.73,1.47,.73,2.28,0,1.13-.41,2.13-1.22,2.97-.81,.85-1.89,1.32-3.24,1.42,.55,.23,.99,.5,1.32,.83,.63,.61,1.39,1.64,2.3,3.08l1.9,3.05h-3.05l-1.39-2.45c-1.09-1.93-1.97-3.14-2.64-3.63-.46-.35-1.13-.53-2.01-.52h-1.48v6.6h-2.51Zm2.51-8.76h3.05c1.46,0,2.46-.22,2.99-.65s.8-1.01,.8-1.72c0-.46-.13-.87-.39-1.23-.25-.37-.61-.64-1.06-.81-.46-.18-1.3-.27-2.53-.27h-2.86v4.68h0Z"/>
</svg>